<svg width="470" height="1024" viewBox="0 0 470 1024" fill="none" xmlns="http://www.w3.org/2000/svg">
<path d="M0 0H404V1024H0V0Z" fill="white"/>
<path fill-rule="evenodd" clip-rule="evenodd" d="M156.77 -18.5619C198.427 -11.9971 239.219 -2.34279 273.073 22.9884C306.664 48.1221 329.016 83.7637 345.386 122.568C363.2 164.793 387.492 211.757 370.702 254.406C354.038 296.735 297.369 302.167 263.031 331.762C224.019 365.386 207.345 429.953 156.77 438.789C105.892 447.677 63.5328 402.059 19.8902 374.241C-27.2418 344.2 -96.6462 325.951 -106.931 270.706C-117.391 214.518 -48.1626 177.166 -26.6461 124.271C-7.67555 77.6355 -28.9131 12.4491 10.6581 -18.3665C50.1664 -49.1331 107.443 -26.3355 156.77 -18.5619Z" stroke="#FF0364"/>
<path fill-rule="evenodd" clip-rule="evenodd" d="M182.77 -59.5619C224.427 -52.9971 265.219 -43.3428 299.073 -18.0116C332.664 7.12206 355.016 42.7637 371.386 81.5682C389.2 123.793 413.492 170.757 396.702 213.406C380.038 255.735 323.369 261.167 289.031 290.762C250.019 324.386 233.345 388.953 182.77 397.789C131.892 406.677 89.5328 361.059 45.8902 333.241C-1.24177 303.2 -70.6462 284.951 -80.931 229.706C-91.3913 173.518 -22.1626 136.166 -0.646077 83.2713C18.3245 36.6355 -2.91309 -28.5509 36.6581 -59.3665C76.1664 -90.1331 133.443 -67.3355 182.77 -59.5619Z" stroke="#FF0364"/>
<path fill-rule="evenodd" clip-rule="evenodd" d="M335.178 235.84C310.384 269.952 283.232 301.889 245.274 320.517C207.612 339 165.704 342.694 123.7 339.623C77.9926 336.281 25.1194 336.554 -5.22564 302.202C-35.3428 268.108 -14.4047 215.17 -25.1427 171.128C-37.3422 121.092 -87.2594 76.8746 -72.1246 27.8151C-56.8991 -21.5382 2.99414 -38.5128 47.6186 -64.7267C95.8108 -93.0365 143.631 -146.545 197.509 -130.577C252.305 -114.335 254.082 -35.6929 291.401 7.52808C324.305 45.6348 392.018 56.3713 401.462 105.629C410.892 154.808 364.536 195.447 335.178 235.84Z" fill="#FF0056"/>
</svg>
