<svg viewBox="0 0 35 27" fill="none" xmlns="http://www.w3.org/2000/svg">
<path d="M5.35395 0.130371C5.35301 0.130371 5.35195 0.130371 5.351 0.130371C5.01998 0.130371 4.70863 0.259412 4.47352 0.493924C4.23583 0.73103 4.1049 1.04674 4.1049 1.38283V20.1633C4.1049 20.852 4.66738 21.4136 5.3589 21.4154C8.27416 21.4223 13.1584 22.03 16.5278 25.556V5.90174C16.5278 5.66829 16.4682 5.44897 16.3557 5.26749C13.5902 0.813875 8.27581 0.137206 5.35395 0.130371Z" fill="#8F7CFF"/>
<path d="M30.8952 20.1633V1.38271C30.8952 1.04662 30.7643 0.730907 30.5266 0.493802C30.2915 0.25929 29.9799 0.130249 29.6492 0.130249C29.6482 0.130249 29.6471 0.130249 29.6462 0.130249C26.7244 0.137202 21.4101 0.813871 18.6445 5.26749C18.5319 5.44897 18.4724 5.66828 18.4724 5.90173V25.5559C21.8419 22.0298 26.7261 21.4222 29.6413 21.4153C30.3327 21.4135 30.8952 20.8519 30.8952 20.1633Z" fill="#8F7CFF"/>
<path d="M33.7478 4.46143H32.8397V20.1633C32.8397 21.9217 31.407 23.3555 29.6459 23.3598C27.1732 23.3657 23.096 23.8493 20.2084 26.5822C25.2024 25.3594 30.4671 26.1543 33.4674 26.8381C33.8421 26.9234 34.2292 26.8352 34.5293 26.596C34.8284 26.3574 35 26.0006 35 25.6178V5.71365C35.0001 5.0232 34.4382 4.46143 33.7478 4.46143Z" fill="#8F7CFF"/>
<path d="M2.16034 20.1633V4.46143H1.25223C0.561888 4.46143 0 5.0232 0 5.71365V25.6174C0 26.0004 0.171583 26.357 0.470675 26.5956C0.770592 26.8348 1.15736 26.9233 1.53258 26.8377C4.53293 26.1538 9.79768 25.3591 14.7915 26.5819C11.904 23.849 7.82683 23.3656 5.35407 23.3597C3.59311 23.3555 2.16034 21.9217 2.16034 20.1633Z" fill="#8F7CFF"/>
</svg>
