<svg width="35" height="35" viewBox="0 0 35 35" fill="none" xmlns="http://www.w3.org/2000/svg">
<path d="M14.4238 18.5254H20.5762V20.5762H14.4238V18.5254Z" fill="#8F7CFF"/>
<path d="M28.395 20.5761H22.627V21.6015C22.627 22.1682 22.1682 22.6269 21.6016 22.6269H13.3984C12.8318 22.6269 12.373 22.1682 12.373 21.6015V20.5761H6.60496C5.27916 20.5761 4.10664 19.731 3.68687 18.4733L0 7.41083V29.8047C0 31.5008 1.38 32.8808 3.07617 32.8808H31.9238C33.62 32.8808 35 31.5008 35 29.8047V7.41163L31.3129 18.4733C30.8934 19.731 29.7208 20.5761 28.395 20.5761Z" fill="#8F7CFF"/>
<path d="M21.6016 2.11914H13.3985C11.7023 2.11914 10.3223 3.49915 10.3223 5.19531V6.2207H1.76428L5.63166 17.8244C5.77185 18.2439 6.16331 18.5254 6.60498 18.5254H12.3731V17.5C12.3731 16.9334 12.8318 16.4746 13.3985 16.4746H21.6016C22.1682 16.4746 22.627 16.9334 22.627 17.5V18.5254H28.3951C28.8367 18.5254 29.2282 18.2439 29.3684 17.8244L33.236 6.2207H24.6778V5.19531C24.6778 3.49915 23.2978 2.11914 21.6016 2.11914ZM12.3731 6.2207V5.19531C12.3731 4.62948 12.8326 4.16992 13.3985 4.16992H21.6016C22.1674 4.16992 22.627 4.62948 22.627 5.19531V6.2207H12.3731Z" fill="#8F7CFF"/>
</svg>
